# xmcd
#
# Track frame offsets:
#	150
#	23106
#	46255
#	67704
#	79338
#	102132
#
# Disc length: 1528 seconds
#
# Revision: 1
# Processed by: cddbd v1.5.2PL0 Copyright (c) Steve Scherf et al.
# Submitted via: audiograbber 1.83.01
#
DISCID=3d05f606
DTITLE=God Forsaken - Slow Motion Tour 2002
DYEAR=2002
DGENRE=Doom
TTITLE0=Silver Skulls
TTITLE1=Must Ang
TTITLE2=Tomorrow Is Never
TTITLE3=Devil May Care
TTITLE4=The Pillar
TTITLE5=Bloodhound
EXTD=
EXTT0=
EXTT1=
EXTT2=
EXTT3=
EXTT4=
EXTT5=
PLAYORDER=
